<?xml version="1.0" encoding="utf-8"?>
<!-- Generator: Adobe Illustrator 16.0.0, SVG Export Plug-In . SVG Version: 6.00 Build 0)  -->
<!DOCTYPE svg PUBLIC "-//W3C//DTD SVG 1.1//EN" "http://www.w3.org/Graphics/SVG/1.1/DTD/svg11.dtd">
<svg version="1.1" id="Слой_1" xmlns="http://www.w3.org/2000/svg" xmlns:xlink="http://www.w3.org/1999/xlink" x="0px" y="0px"
	 width="64px" height="64px" viewBox="0 0 64 64" enable-background="new 0 0 64 64" xml:space="preserve">
<path fill="#C8595C" d="M38.222,55.359c-1.914,0-3.793-0.707-5.436-2.039c-0.086-0.07-0.361-0.203-0.787-0.203
	c-0.425,0-0.701,0.133-0.786,0.203c-1.643,1.332-3.522,2.039-5.437,2.039c-3.615,0-6.607-2.466-7.624-6.284
	c-0.1-0.372-0.778-0.925-1.257-0.925h-0.016c-0.184,0.01-0.37,0.017-0.552,0.017c-2.861,0-5.35-1.236-6.827-3.39
	c-1.496-2.179-1.747-4.999-0.691-7.736c0.153-0.396-0.129-1.263-0.487-1.495c-2.536-1.642-3.99-4.144-3.99-6.866
	s1.454-5.226,3.99-6.866c0.358-0.231,0.64-1.099,0.487-1.497c-1.056-2.736-0.804-5.556,0.691-7.734
	c1.478-2.155,3.966-3.39,6.827-3.39c0.183,0,0.369,0.005,0.553,0.016h0.017c0.409,0,1.14-0.487,1.257-0.925
	C19.169,4.467,22.161,2,25.776,2c1.915,0,3.794,0.705,5.437,2.04c0.085,0.07,0.361,0.202,0.786,0.202
	c0.426,0,0.701-0.132,0.787-0.202C34.429,2.706,36.308,2,38.222,2c3.615,0,6.606,2.467,7.625,6.283
	c0.098,0.374,0.777,0.925,1.254,0.925h0.018c0.186-0.011,0.372-0.016,0.552-0.016c2.862,0,5.351,1.235,6.829,3.39
	c1.494,2.179,1.746,4.998,0.691,7.736c-0.153,0.397,0.129,1.264,0.483,1.496c2.535,1.64,3.993,4.143,3.993,6.866
	s-1.458,5.225-3.993,6.866c-0.354,0.232-0.637,1.1-0.483,1.498c1.055,2.734,0.803,5.555-0.691,7.733
	c-1.479,2.153-3.967,3.39-6.829,3.39c-0.18,0-0.366-0.007-0.552-0.017h-0.017c-0.407,0-1.141,0.486-1.257,0.925
	C44.828,52.891,41.837,55.359,38.222,55.359L38.222,55.359z"/>
<path fill="#FFFFFF" d="M28.104,7.867c2.143,1.741,5.649,1.741,7.79,0c2.145-1.742,4.477-0.982,5.188,1.686
	c0.71,2.667,3.547,4.728,6.305,4.579c2.753-0.149,4.197,1.836,3.203,4.413c-0.991,2.576,0.092,5.909,2.411,7.409
	c2.315,1.501,2.315,3.955,0,5.454c-2.319,1.501-3.402,4.834-2.411,7.41c0.994,2.575-0.45,4.562-3.203,4.41
	c-2.758-0.147-5.595,1.915-6.305,4.58c-0.711,2.668-3.043,3.427-5.188,1.686c-2.141-1.739-5.647-1.739-7.79,0
	c-2.143,1.741-4.477,0.982-5.186-1.686c-0.71-2.665-3.547-4.728-6.304-4.58c-2.756,0.148-4.199-1.835-3.206-4.41
	c0.993-2.576-0.09-5.909-2.407-7.41c-2.317-1.499-2.317-3.953,0-5.454c2.317-1.5,3.4-4.833,2.407-7.409
	c-0.993-2.577,0.45-4.562,3.206-4.413c2.756,0.149,5.593-1.912,6.304-4.579C23.627,6.884,25.96,6.125,28.104,7.867z"/>
<g>
	<path fill="#4C75B3" d="M29.055,12.951c1.62,1.315,4.269,1.315,5.89,0c1.617-1.315,3.382-0.742,3.918,1.273
		c0.537,2.016,2.68,3.574,4.763,3.46c2.085-0.112,3.174,1.388,2.425,3.335c-0.753,1.946,0.066,4.467,1.818,5.6
		c1.752,1.134,1.752,2.987,0,4.122c-1.752,1.133-2.571,3.651-1.818,5.599c0.749,1.945-0.34,3.446-2.425,3.334
		c-2.083-0.111-4.226,1.445-4.763,3.461c-0.536,2.017-2.301,2.589-3.918,1.273c-1.621-1.314-4.27-1.314-5.89,0
		c-1.619,1.315-3.382,0.743-3.92-1.273c-0.535-2.016-2.679-3.572-4.762-3.461c-2.084,0.112-3.174-1.389-2.423-3.334
		c0.751-1.947-0.068-4.466-1.819-5.599c-1.752-1.135-1.752-2.988,0-4.122c1.751-1.135,2.57-3.654,1.819-5.6
		c-0.751-1.947,0.34-3.447,2.423-3.335c2.083,0.113,4.227-1.445,4.762-3.46C25.672,12.209,27.436,11.635,29.055,12.951z"/>
	<polygon fill="#4C75B3" points="39.786,33.672 24.213,33.672 24.213,62 31.999,58.855 39.786,62 	"/>
</g>
<circle opacity="0.1" fill="#0D0F0F" enable-background="new    " cx="31.999" cy="31.049" r="13.543"/>
<polygon fill="#4C75B3" points="39.786,33.672 24.213,33.672 24.213,62 31.999,58.855 39.786,62 "/>
<polygon fill="#FFFFFF" points="29.366,33.672 29.366,59.921 31.999,58.855 34.632,59.921 34.632,33.672 "/>
<circle fill="#F0BC44" cx="31.999" cy="28.679" r="12.78"/>
<circle opacity="0.15" fill="#0D0F0F" enable-background="new    " cx="31.999" cy="28.68" r="8.742"/>
<path opacity="0.1" fill="#0D0F0F" enable-background="new    " d="M31.999,19.938c-4.827,0-8.741,3.915-8.741,8.742
	c0,4.829,3.914,8.742,8.741,8.742c4.828,0,8.742-3.913,8.742-8.742C40.741,23.853,36.827,19.938,31.999,19.938z M31.999,35.665
	c-3.856,0-6.985-3.127-6.985-6.985c0-3.857,3.129-6.986,6.985-6.986c3.858,0,6.986,3.128,6.986,6.986
	C38.985,32.538,35.857,35.665,31.999,35.665z"/>
<g opacity="0.3">
	<path fill="#0D0F0F" d="M31.406,26.015l-0.753,0.195c-0.111,0.026-0.264,0.056-0.377,0.056c-0.502,0-0.934-0.42-0.934-0.922
		c0-0.432,0.279-0.794,0.711-0.919l1.381-0.405c0.405-0.112,0.712-0.182,1.004-0.182h0.027c0.587,0,1.061,0.474,1.061,1.06v7.868
		c0,0.585-0.474,1.059-1.061,1.059c-0.585,0-1.058-0.474-1.058-1.059v-6.751H31.406L31.406,26.015z"/>
</g>
<circle fill="#FFFFFF" cx="38.304" cy="22.625" r="1.991"/>
</svg>
